<?xml version="1.0" standalone="no"?>
<!DOCTYPE svg PUBLIC "-//W3C//DTD SVG 20010904//EN"
 "http://www.w3.org/TR/2001/REC-SVG-20010904/DTD/svg10.dtd">
<svg version="1.0" xmlns="http://www.w3.org/2000/svg"
 width="192.000000pt" height="192.000000pt" viewBox="0 0 192.000000 192.000000"
 preserveAspectRatio="xMidYMid meet">
<metadata>
Created by potrace 1.11, written by Peter Selinger 2001-2013
</metadata>
<g transform="translate(0.000000,192.000000) scale(0.100000,-0.100000)"
fill="#000000" stroke="none">
<path d="M795 1908 c-301 -54 -566 -251 -694 -514 -74 -152 -101 -275 -96
-444 1 -69 8 -147 14 -175 73 -314 281 -563 574 -685 196 -81 451 -89 659 -20
234 79 434 252 545 472 223 446 66 987 -363 1245 -58 35 -213 99 -264 109 -19
3 -46 8 -60 11 -49 9 -266 10 -315 1z"/>
</g>
</svg>
